<?xml version="1.0" encoding="UTF-8" standalone="no"?>
<svg
   xmlns:dc="http://purl.org/dc/elements/1.1/"
   xmlns:cc="http://creativecommons.org/ns#"
   xmlns:rdf="http://www.w3.org/1999/02/22-rdf-syntax-ns#"
   xmlns:svg="http://www.w3.org/2000/svg"
   xmlns="http://www.w3.org/2000/svg"
   xmlns:sodipodi="http://sodipodi.sourceforge.net/DTD/sodipodi-0.dtd"
   xmlns:inkscape="http://www.inkscape.org/namespaces/inkscape"
   inkscape:export-ydpi="64"
   inkscape:export-xdpi="64"
   inkscape:export-filename="/Users/rael/Downloads/3scale-saas-logo.png"
   inkscape:version="1.0beta2 (2b71d25, 2019-12-03)"
   height="120"
   width="180"
   sodipodi:docname="3scale-saas.svg"
   version="1.1"
   viewBox="0 0 179.99999 120"
   data-name="Layer 1"
   id="Layer_1">
  <metadata
     id="metadata133">
    <rdf:RDF>
      <cc:Work
         rdf:about="">
        <dc:format>image/svg+xml</dc:format>
        <dc:type
           rdf:resource="http://purl.org/dc/dcmitype/StillImage" />
        <dc:title>NGINX_Partners_logo_</dc:title>
      </cc:Work>
    </rdf:RDF>
  </metadata>
  <sodipodi:namedview
     inkscape:document-rotation="0"
     inkscape:current-layer="Layer_1"
     inkscape:window-maximized="1"
     inkscape:window-y="25"
     inkscape:window-x="0"
     inkscape:cy="161.13368"
     inkscape:cx="245.95481"
     inkscape:zoom="1.9506277"
     showgrid="false"
     id="namedview131"
     inkscape:window-height="997"
     inkscape:window-width="1680"
     inkscape:pageshadow="2"
     inkscape:pageopacity="0"
     guidetolerance="10"
     gridtolerance="10"
     objecttolerance="10"
     borderopacity="1"
     bordercolor="#666666"
     pagecolor="#ffffff"
     units="px" />
  <defs
     id="defs4">
    <style
       id="style2">.cls-1{fill:#f47721;}</style>
  </defs>
  <title
     id="title6">NGINX_Partners_logo_</title>
  <g
     transform="matrix(3.1119495,0,0,3.1119495,-30.972394,-54.384004)"
     id="g1119">
    <path
       style="fill:#f47721;stroke-width:0.425605"
       inkscape:connector-curvature="0"
       class="cls-1"
       d="m 41.715515,34.925708 a 2.238681,2.238681 0 0 1 -2.251449,-2.238681 2.2514491,2.2514491 0 1 1 4.502898,0 2.2344249,2.2344249 0 0 1 -2.251449,2.238681 z"
       id="path20" />
    <path
       style="fill:#f47721;stroke-width:0.425605"
       inkscape:connector-curvature="0"
       class="cls-1"
       d="m 34.986704,28.788487 a 1.6513464,1.6513464 0 0 1 -1.668371,-1.702419 1.702419,1.702419 0 0 1 1.702419,-1.702419 1.7407234,1.7407234 0 0 1 1.702419,1.702419 1.702419,1.702419 0 0 1 -1.736467,1.702419 z"
       id="path22" />
    <path
       inkscape:connector-curvature="0"
       d="m 28.71329,28.648038 a 1.255534,1.255534 0 1 1 -1.276814,1.242766 1.2768142,1.2768142 0 0 1 1.276814,-1.242766 z"
       id="path24"
       style="stroke-width:0.425605" />
    <path
       inkscape:connector-curvature="0"
       d="m 47.899552,30.737757 a 1.1959493,1.1959493 0 0 1 1.204462,-1.208717 1.2065895,1.2065895 0 1 1 0,2.413179 1.1916933,1.1916933 0 0 1 -1.204462,-1.204462 z"
       id="path26"
       style="stroke-width:0.425605" />
    <path
       inkscape:connector-curvature="0"
       d="m 48.129379,34.627785 a 1.161901,1.161901 0 0 1 0,2.323802 1.161901,1.161901 0 1 1 0,-2.323802 z"
       id="path28"
       style="stroke-width:0.425605" />
    <path
       inkscape:connector-curvature="0"
       d="m 36.561442,33.036023 a 1.138493,1.138493 0 1 1 0,-2.276986 1.138493,1.138493 0 1 1 0,2.276986 z"
       id="path30"
       style="stroke-width:0.425605" />
    <path
       inkscape:connector-curvature="0"
       d="m 42.260289,38.615701 a 1.0895482,1.0895482 0 1 1 1.123597,-1.059756 1.0938042,1.0938042 0 0 1 -1.123597,1.059756 z"
       id="path32"
       style="stroke-width:0.425605" />
    <path
       inkscape:connector-curvature="0"
       d="m 34.78667,23.425868 a 1.0682679,1.0682679 0 0 1 1.059756,-1.089549 1.07678,1.07678 0 1 1 -1.059756,1.089549 z"
       id="path34"
       style="stroke-width:0.425605" />
    <path
       inkscape:connector-curvature="0"
       d="m 38.234068,18.76124 a 1.07678,1.07678 0 0 1 1.081036,1.064011 1.072524,1.072524 0 1 1 -2.128023,0 1.0682679,1.0682679 0 0 1 1.046987,-1.064011 z"
       id="path36"
       style="stroke-width:0.425605" />
    <path
       inkscape:connector-curvature="0"
       d="m 31.386088,23.745071 a 1.0682679,1.0682679 0 1 1 0,-2.128024 1.0682679,1.0682679 0 0 1 0,2.128024 z"
       id="path38"
       style="stroke-width:0.425605" />
    <path
       inkscape:connector-curvature="0"
       d="m 40.39614,25.179359 a 1.07678,1.07678 0 0 1 2.149304,0 1.07678,1.07678 0 1 1 -2.149304,0 z"
       id="path40"
       style="stroke-width:0.425605" />
    <path
       inkscape:connector-curvature="0"
       d="m 45.039488,26.175274 a 1.0427316,1.0427316 0 0 1 -1.051244,-1.059756 1.064012,1.064012 0 1 1 2.128024,0 1.0427316,1.0427316 0 0 1 -1.07678,1.059756 z"
       id="path42"
       style="stroke-width:0.425605" />
    <path
       style="fill:#f47721;stroke-width:0.425605"
       inkscape:connector-curvature="0"
       class="cls-1"
       d="m 44.460666,27.669147 a 1.0214514,1.0214514 0 0 1 -1.03422,1.012939 1.0512437,1.0512437 0 0 1 -1.021451,-1.034219 1.0682679,1.0682679 0 0 1 1.034219,-1.03422 1.0342195,1.0342195 0 0 1 1.021452,1.0555 z"
       id="path44" />
    <path
       inkscape:connector-curvature="0"
       d="m 34.148263,37.275046 a 1.0086833,1.0086833 0 1 1 1.025707,-1.008683 1.0001712,1.0001712 0 0 1 -1.025707,1.008683 z"
       id="path46"
       style="stroke-width:0.425605" />
    <path
       inkscape:connector-curvature="0"
       d="m 30.228443,33.359482 a 0.98740302,0.98740302 0 1 1 -0.991659,-0.995915 1.0001712,1.0001712 0 0 1 0.991659,0.995915 z"
       id="path48"
       style="stroke-width:0.425605" />
    <path
       inkscape:connector-curvature="0"
       d="m 35.625111,39.496703 a 0.98314697,0.98314697 0 1 1 -0.991659,-0.991659 0.99165907,0.99165907 0 0 1 0.991659,0.991659 z"
       id="path50"
       style="stroke-width:0.425605" />
    <path
       inkscape:connector-curvature="0"
       d="m 47.210072,33.014743 a 0.98740302,0.98740302 0 1 1 -1.004427,-0.974635 0.97889092,0.97889092 0 0 1 1.004427,0.974635 z"
       id="path52"
       style="stroke-width:0.425605" />
    <path
       inkscape:connector-curvature="0"
       d="m 31.505257,35.998232 a 0.97463488,0.97463488 0 0 1 -0.957611,0.978891 0.99165907,0.99165907 0 0 1 -0.983147,-0.974635 0.97463488,0.97463488 0 0 1 0.974635,-0.970379 0.96186673,0.96186673 0 0 1 0.966123,0.966123 z"
       id="path54"
       style="stroke-width:0.425605" />
    <path
       inkscape:connector-curvature="0"
       d="m 48.750762,26.494478 a 0.93633045,0.93633045 0 0 1 -0.953355,-0.923562 0.94484254,0.94484254 0 0 1 0.919306,-0.966123 0.95335464,0.95335464 0 0 1 0.957611,0.953354 0.94484254,0.94484254 0 0 1 -0.923562,0.936331 z"
       id="path56"
       style="stroke-width:0.425605" />
    <path
       inkscape:connector-curvature="0"
       d="m 40.281227,38.841272 a 0.93633045,0.93633045 0 0 1 -0.927818,0.944842 0.93633045,0.93633045 0 0 1 0,-1.868405 0.9405865,0.9405865 0 0 1 0.927818,0.923563 z"
       id="path58"
       style="stroke-width:0.425605" />
    <path
       inkscape:connector-curvature="0"
       d="m 37.476492,41.573654 a 0.9320744,0.9320744 0 0 1 -0.932075,-0.919306 0.93633045,0.93633045 0 1 1 1.868405,0 0.9320744,0.9320744 0 0 1 -0.93633,0.919306 z"
       id="path60"
       style="stroke-width:0.425605" />
    <path
       inkscape:connector-curvature="0"
       d="m 36.889157,35.734357 a 0.92781836,0.92781836 0 1 1 0,1.851381 0.92781836,0.92781836 0 1 1 0,-1.851381 z"
       id="path62"
       style="stroke-width:0.425605" />
    <path
       inkscape:connector-curvature="0"
       d="m 41.506969,28.694854 a 0.89802602,0.89802602 0 0 1 -0.91505,0.89377 0.91079416,0.91079416 0 0 1 -0.881002,-0.906538 0.89376997,0.89376997 0 0 1 0.919306,-0.898026 0.88525788,0.88525788 0 0 1 0.876746,0.910794 z"
       id="path64"
       style="stroke-width:0.425605" />
    <path
       inkscape:connector-curvature="0"
       d="m 44.784125,39.611616 a 0.8512095,0.8512095 0 0 1 -0.851209,0.825673 0.8512095,0.8512095 0 0 1 -0.85121,-0.872489 0.8512095,0.8512095 0 0 1 0.885258,-0.812905 0.82141717,0.82141717 0 0 1 0.817161,0.859721 z"
       id="path66"
       style="stroke-width:0.425605" />
    <path
       inkscape:connector-curvature="0"
       d="m 48.010209,23.468428 a 0.8512095,0.8512095 0 0 1 -0.851209,0.85121 0.8512095,0.8512095 0 1 1 0,-1.702419 0.8512095,0.8512095 0 0 1 0.851209,0.851209 z"
       id="path68"
       style="stroke-width:0.425605" />
    <path
       inkscape:connector-curvature="0"
       d="m 40.35358,36.423837 a 0.82567321,0.82567321 0 1 1 -0.812905,-0.85121 0.8512095,0.8512095 0 0 1 0.812905,0.85121 z"
       id="path70"
       style="stroke-width:0.425605" />
    <path
       inkscape:connector-curvature="0"
       d="m 39.106558,27.013716 a 0.82567321,0.82567321 0 1 1 -0.821417,-0.85121 0.8512095,0.8512095 0 0 1 0.821417,0.85121 z"
       id="path72"
       style="stroke-width:0.425605" />
    <path
       inkscape:connector-curvature="0"
       d="m 30.764705,29.286445 a 0.795881,0.795881 0 0 1 1.591762,0 0.795881,0.795881 0 1 1 -1.591762,0 z"
       id="path74"
       style="stroke-width:0.425605" />
    <path
       inkscape:connector-curvature="0"
       d="m 41.170741,22.455489 a 0.78736879,0.78736879 0 0 1 -0.770345,-0.800137 0.80013693,0.80013693 0 0 1 0.791625,-0.761833 0.79162483,0.79162483 0 0 1 0.778857,0.800137 0.77885669,0.77885669 0 0 1 -0.800137,0.761833 z"
       id="path76"
       style="stroke-width:0.425605" />
    <path
       inkscape:connector-curvature="0"
       d="m 43.737138,20.463659 a 0.783113,0.783113 0 1 1 -1.566226,0 0.783113,0.783113 0 1 1 1.566226,0 z"
       id="path78"
       style="stroke-width:0.425605" />
    <path
       inkscape:connector-curvature="0"
       d="m 44.98416,34.89166 a 0.74480831,0.74480831 0 0 1 0.75332,0.757576 0.7618325,0.7618325 0 0 1 -0.766089,0.766089 0.77885669,0.77885669 0 0 1 -0.75332,-0.761833 0.7618325,0.7618325 0 0 1 0.766089,-0.761832 z"
       id="path80"
       style="stroke-width:0.425605" />
    <path
       inkscape:connector-curvature="0"
       d="m 45.150145,30.295128 a 0.7490645,0.7490645 0 1 1 1.498129,0 0.7490645,0.7490645 0 1 1 -1.498129,0 z"
       id="path82"
       style="stroke-width:0.425605" />
    <path
       inkscape:connector-curvature="0"
       d="m 32.607573,21.025457 a 0.72352807,0.72352807 0 0 1 0.740553,-0.73204 0.73629622,0.73629622 0 1 1 0,1.472592 0.72778412,0.72778412 0 0 1 -0.740553,-0.740552 z"
       id="path84"
       style="stroke-width:0.425605" />
    <path
       inkscape:connector-curvature="0"
       d="m 33.722658,32.567858 a 0.73629622,0.73629622 0 1 1 0,1.472592 0.73629622,0.73629622 0 0 1 0,-1.472592 z"
       id="path86"
       style="stroke-width:0.425605" />
    <path
       inkscape:connector-curvature="0"
       d="m 34.62494,30.631356 a 0.73629622,0.73629622 0 0 1 -0.727784,0.749064 0.74906436,0.74906436 0 0 1 -0.749065,-0.736296 0.73629622,0.73629622 0 0 1 0.736297,-0.740552 0.72352807,0.72352807 0 0 1 0.740552,0.727784 z"
       id="path88"
       style="stroke-width:0.425605" />
    <path
       inkscape:connector-curvature="0"
       d="m 40.898354,40.075525 a 0.687352,0.687352 0 1 1 0,1.374704 0.687352,0.687352 0 0 1 0,-1.374704 z"
       id="path90"
       style="stroke-width:0.425605" />
    <path
       inkscape:connector-curvature="0"
       d="m 49.802005,28.137312 a 0.66819946,0.66819946 0 0 1 -0.689479,0.680968 0.67671155,0.67671155 0 0 1 -0.680968,-0.6682 0.69799179,0.69799179 0 0 1 0.676712,-0.702248 0.6894797,0.6894797 0 0 1 0.693735,0.68948 z"
       id="path92"
       style="stroke-width:0.425605" />
    <path
       inkscape:connector-curvature="0"
       d="m 28.998445,27.613818 a 0.66394341,0.66394341 0 0 1 -0.663943,-0.676711 0.67671155,0.67671155 0 0 1 0.672455,-0.672456 0.6894797,0.6894797 0 0 1 0.680968,0.693736 0.67671155,0.67671155 0 0 1 -0.68948,0.655431 z"
       id="path94"
       style="stroke-width:0.425605" />
    <path
       inkscape:connector-curvature="0"
       d="m 38.740538,22.996007 a 0.66394341,0.66394341 0 1 1 0.685224,-0.655432 0.66819946,0.66819946 0 0 1 -0.685224,0.655432 z"
       id="path96"
       style="stroke-width:0.425605" />
    <path
       inkscape:connector-curvature="0"
       d="m 46.941941,27.511673 a 0.65543131,0.65543131 0 0 1 -0.642663,0.6682 0.64266317,0.64266317 0 0 1 -0.680967,-0.64692 0.65968736,0.65968736 0 0 1 0.659687,-0.672455 0.6724555,0.6724555 0 0 1 0.663943,0.651175 z"
       id="path98"
       style="stroke-width:0.425605" />
    <path
       inkscape:connector-curvature="0"
       d="m 37.587149,30.269592 a 0.64691922,0.64691922 0 0 1 0.642663,-0.663943 0.66394341,0.66394341 0 0 1 0.6682,0.642663 0.6724555,0.6724555 0 0 1 -0.651176,0.663943 0.65543131,0.65543131 0 0 1 -0.659687,-0.642663 z"
       id="path100"
       style="stroke-width:0.425605" />
    <path
       inkscape:connector-curvature="0"
       d="m 39.07251,24.409015 a 0.63840712,0.63840712 0 0 1 -0.659688,0.651175 0.65968736,0.65968736 0 0 1 -0.646919,-0.659688 0.6724555,0.6724555 0 0 1 0.668199,-0.646919 0.65543131,0.65543131 0 0 1 0.638408,0.655432 z"
       id="path102"
       style="stroke-width:0.425605" />
    <path
       inkscape:connector-curvature="0"
       d="m 32.49266,25.238944 a 0.61712689,0.61712689 0 1 1 0.625639,-0.604359 0.62989503,0.62989503 0 0 1 -0.625639,0.604359 z"
       id="path104"
       style="stroke-width:0.425605" />
    <path
       inkscape:connector-curvature="0"
       d="m 35.484662,20.553036 a 0.55754222,0.55754222 0 0 1 -0.544775,-0.600103 0.56605432,0.56605432 0 1 1 1.127853,0.04256 0.56179827,0.56179827 0 0 1 -0.583078,0.557543 z"
       id="path106"
       style="stroke-width:0.425605" />
    <path
       inkscape:connector-curvature="0"
       d="m 31.939374,38.913624 a 0.55754222,0.55754222 0 1 1 0.553286,-0.553286 0.56605432,0.56605432 0 0 1 -0.553286,0.553286 z"
       id="path108"
       style="stroke-width:0.425605" />
    <path
       inkscape:connector-curvature="0"
       d="m 43.835027,23.468428 a 0.55754222,0.55754222 0 1 1 0,-1.110828 0.55754222,0.55754222 0 1 1 0,1.110828 z"
       id="path110"
       style="stroke-width:0.425605" />
    <path
       inkscape:connector-curvature="0"
       d="m 44.992672,21.876666 a 0.55754222,0.55754222 0 1 1 -0.02554,-1.110828 0.55754222,0.55754222 0 1 1 0.02554,1.110828 z"
       id="path112"
       style="stroke-width:0.425605" />
    <path
       inkscape:connector-curvature="0"
       d="m 30.288028,24.770779 a 0.52774989,0.52774989 0 1 1 -1.051244,0.02128 0.52774989,0.52774989 0 0 1 1.051244,-0.02128 z"
       id="path114"
       style="stroke-width:0.425605" />
    <path
       inkscape:connector-curvature="0"
       d="m 31.266918,25.941192 a 0.53200594,0.53200594 0 0 1 0.536262,0.536262 0.55328617,0.55328617 0 0 1 -0.536262,0.523494 0.53200594,0.53200594 0 0 1 -0.527749,-0.540519 0.51498175,0.51498175 0 0 1 0.527749,-0.519237 z"
       id="path116"
       style="stroke-width:0.425605" />
    <path
       inkscape:connector-curvature="0"
       d="m 44.332984,30.09935 a 0.50646965,0.50646965 0 0 1 -0.489445,0.493702 0.49370151,0.49370151 0 0 1 -0.489446,-0.510726 0.48518942,0.48518942 0 0 1 0.497958,-0.472421 0.49795756,0.49795756 0 0 1 0.480933,0.489445 z"
       id="path118"
       style="stroke-width:0.425605" />
    <path
       inkscape:connector-curvature="0"
       d="m 38.412822,34.798027 a 0.46390918,0.46390918 0 0 1 -0.476677,0.476677 0.45114103,0.45114103 0 0 1 -0.455397,-0.446885 0.46816522,0.46816522 0 0 1 0.455397,-0.48519 0.48518942,0.48518942 0 0 1 0.476677,0.455398 z"
       id="path120"
       style="stroke-width:0.425605" />
    <path
       inkscape:connector-curvature="0"
       d="m 49.206159,33.572285 a 0.48093337,0.48093337 0 0 1 -0.489446,0.463909 0.46816522,0.46816522 0 0 1 -0.425605,-0.463909 0.45965313,0.45965313 0 0 1 0.425605,-0.476677 0.47667732,0.47667732 0 0 1 0.489446,0.476677 z"
       id="path122"
       style="stroke-width:0.425605" />
    <path
       inkscape:connector-curvature="0"
       d="m 46.320559,38.377362 a 0.46390918,0.46390918 0 0 1 -0.472422,0.46391 0.47242127,0.47242127 0 0 1 -0.451141,-0.459653 0.45965313,0.45965313 0 0 1 0.459653,-0.472422 0.45114103,0.45114103 0 0 1 0.46391,0.468165 z"
       id="path124"
       style="stroke-width:0.425605" />
    <path
       inkscape:connector-curvature="0"
       d="m 32.164945,32.010315 a 0.45965313,0.45965313 0 0 1 -0.472422,0.451141 0.42560475,0.42560475 0 0 1 -0.425605,-0.480933 0.45114103,0.45114103 0 0 1 0.46391,-0.425605 0.46816522,0.46816522 0 0 1 0.434117,0.455397 z"
       id="path126"
       style="stroke-width:0.425605" />
    <path
       inkscape:connector-curvature="0"
       d="m 40.685552,19.527328 a 0.42560475,0.42560475 0 0 1 -0.425605,0.425605 0.42560475,0.42560475 0 0 1 -0.425605,-0.425605 0.42560475,0.42560475 0 0 1 0.425605,-0.446885 0.45114103,0.45114103 0 0 1 0.425605,0.446885 z"
       id="path128"
       style="stroke-width:0.425605" />
  </g>
  <g
     transform="translate(-68.029467,36.067315)"
     id="g82">
    <path
       inkscape:connector-curvature="0"
       d="m 112.76265,66.446153 h 3.79915 c 0.095,1.282215 0.13062,2.528814 0.28494,3.763542 0.30868,2.37447 1.31783,3.39549 3.65669,3.561708 a 46.990812,46.990812 0 0 0 10.87508,-0.14247 3.4904748,3.4904748 0 0 0 3.06307,-2.93247 15.742753,15.742753 0 0 0 0.10683,-5.936184 c -0.35617,-2.065788 -1.55528,-3.039324 -3.88226,-3.205536 -3.11056,-0.21372 -6.23299,-0.379917 -9.34355,-0.60549 a 27.211457,27.211457 0 0 1 -2.99184,-0.403662 5.9361813,5.9361813 0 0 1 -5.22384,-5.330691 17.808544,17.808544 0 0 1 0.28494,-7.384611 6.1617564,6.1617564 0 0 1 5.11699,-4.820175 38.300241,38.300241 0 0 1 13.78382,-0.09498 c 3.62106,0.629236 5.40192,2.944345 5.63937,6.802866 0,0.759831 0,1.519662 0,2.37447 h -3.76354 c -0.11871,-0.997278 -0.18996,-1.923324 -0.33243,-2.837492 a 3.2055381,3.2055381 0 0 0 -3.07494,-3.146175 37.445433,37.445433 0 0 0 -10.50704,0.0831 c -2.37447,0.379915 -3.24116,1.329706 -3.43111,3.704175 a 19.090759,19.09076 0 0 0 0.0712,3.894135 3.9060075,3.9060075 0 0 0 3.98911,3.787284 c 2.12516,0.17808 4.27405,0.17808 6.39921,0.320553 2.12515,0.14247 3.97724,0.28494 5.93618,0.593622 a 5.6749896,5.6749896 0 0 1 5.04575,5.022009 21.275274,21.275274 0 0 1 0,8.061333 6.2923524,6.2923524 0 0 1 -5.59188,5.390052 42.479313,42.479313 0 0 1 -13.79569,0 c -3.96536,-0.70047 -5.76996,-2.896857 -6.04303,-6.945333 -0.14247,-1.21098 -0.0712,-2.374473 -0.0712,-3.573579 z"
       id="path8"
       style="stroke-width:1.18724" />
    <path
       style="fill:#f47721;stroke-width:1.18724"
       inkscape:connector-curvature="0"
       class="cls-1"
       d="m 102.7684,59.580008 c 0.21372,0 0.40366,0.11871 0.59362,0.15435 0.41553,0.07125 0.83106,0.10683 1.18723,0.18996 a 4.9270305,4.9270305 0 0 1 4.21469,4.416519 19.49442,19.49442 0 0 1 -0.29679,7.823886 6.3160971,6.3160971 0 0 1 -6.39921,4.998264 c -3.110555,0.11871 -6.244862,0.18996 -9.355418,0.11871 a 18.402162,18.402162 0 0 1 -4.333416,-0.70047 6.0905223,6.0905223 0 0 1 -4.653963,-5.722479 c -0.15435,-1.365321 -0.10686,-2.742516 -0.16623,-4.119711 0,-0.474891 0.16623,-0.664851 0.641103,-0.652977 q 1.187238,0 2.433837,0 c 0.474894,0 0.641109,0.1662 0.641109,0.652977 a 34.881003,34.881003 0 0 0 0.20184,4.024734 c 0.26118,2.089536 1.294086,2.991834 3.44298,3.110556 2.695029,0.14247 5.401929,0.24933 8.096955,0.27306 a 18.544631,18.544631 0 0 0 3.490473,-0.415533 2.9799629,2.9799629 0 0 0 2.45758,-2.374473 16.300754,16.300754 0 0 0 0.10683,-7.016565 c -0.41553,-1.982685 -1.9352,-3.07494 -4.10783,-3.07494 -2.172647,0 -4.321547,-0.11871 -6.482315,-0.11871 -0.617364,0 -0.926046,-0.14247 -0.854811,-0.819192 0.07125,-0.676725 -0.1662,-1.745238 0.22554,-2.172645 0.391788,-0.427404 1.377195,-0.14247 2.113281,-0.17808 1.768983,-0.07125 3.561708,0 5.295075,-0.23745 2.13702,-0.28494 2.93247,-1.187235 3.2649,-3.2649 a 16.288882,16.288882 0 0 0 -0.0949,-5.639394 3.0037077,3.0037077 0 0 0 -2.48133,-2.600049 16.47884,16.47884 0 0 0 -3.312387,-0.403659 c -2.576301,0 -5.152605,0 -7.717038,0.24933 -1.863957,0.1662 -2.849364,1.507788 -2.991834,3.561708 -0.07125,0.949788 -0.11871,1.91145 -0.14247,2.861241 0,0.415527 -0.10686,0.652977 -0.581745,0.641106 -0.854811,0 -1.721493,0 -2.576304,0 a 0.73608648,0.73608648 0 0 1 -0.534255,-0.474897 16.110797,16.110797 0 0 1 0.617364,-5.651241 5.5443936,5.5443936 0 0 1 4.547112,-3.953496 42.95421,42.95421 0 0 1 13.641347,-0.0831 5.7818406,5.7818406 0 0 1 5.1526,5.128863 19.506292,19.506292 0 0 1 0,6.957204 4.9270305,4.9270305 0 0 1 -4.74894,4.214688 4.4758809,4.4758809 0 0 0 -0.48677,0.10683 c 0,0 0,0.07125 -0.0475,0.18996 z"
       id="path10" />
    <path
       inkscape:connector-curvature="0"
       d="m 204.91337,77.477357 c -1.30831,0 -2.42279,0 -3.63419,0 a 0.94488813,0.94488813 0 0 1 -0.64204,-0.53301 q -1.21139,-3.113286 -2.33799,-6.262914 a 0.86009049,0.86009049 0 0 0 -0.96911,-0.678384 q -8.20115,0 -16.40229,0 a 0.84797655,0.84797655 0 0 0 -0.95701,0.690501 c -0.71472,2.059368 -1.50213,4.094514 -2.21685,6.141771 a 0.83586261,0.83586261 0 0 1 -0.96912,0.678375 c -1.09025,0 -2.19263,0 -3.40401,0 l 1.38098,-3.815889 q 5.57242,-15.312033 11.13273,-30.624072 a 0.8843184,0.8843184 0 0 1 1.00545,-0.714714 c 1.33254,0 2.66507,0 3.98549,0 a 1.0175719,1.0175719 0 0 1 1.2114,0.799515 q 5.54819,14.960727 11.14483,29.909346 z M 189.25003,45.787262 h -0.20595 l -7.6439,20.90868 h 15.59065 z"
       id="path12"
       style="stroke-width:1.21139" />
    <path
       style="stroke-width:1.2114"
       id="path12-5"
       d="m 171.95888,77.477354 c -1.3083,0 -2.42278,0 -3.63418,0 a 0.94488807,0.94488807 0 0 1 -0.64204,-0.53301 q -1.21139,-3.113286 -2.33799,-6.262914 a 0.86009043,0.86009043 0 0 0 -0.96912,-0.678381 q -8.20114,0 -16.40228,0 a 0.84797646,0.84797646 0 0 0 -0.95701,0.690498 c -0.71472,2.059371 -1.50213,4.094514 -2.21685,6.141771 a 0.83586255,0.83586255 0 0 1 -0.96912,0.678378 c -1.09025,0 -2.19262,0 -3.40401,0 l 1.38098,-3.815892 q 5.57242,-15.312033 11.13272,-30.624066 a 0.88431834,0.88431834 0 0 1 1.00546,-0.714717 c 1.33254,0 2.66507,0 3.98549,0 a 1.0175718,1.0175718 0 0 1 1.2114,0.799515 q 5.54819,14.960727 11.14483,29.909343 z M 156.29555,45.787262 h -0.20595 l -7.64391,20.908677 h 15.59066 z"
       inkscape:connector-curvature="0" />
    <path
       style="stroke-width:1.18724"
       id="path8-4"
       d="m 206.61263,66.446153 h 3.79915 c 0.0949,1.282215 0.13071,2.528814 0.28494,3.763542 0.30869,2.37447 1.31784,3.39549 3.65669,3.561708 a 46.990812,46.990812 0 0 0 10.8751,-0.14247 3.4904748,3.4904748 0 0 0 3.06306,-2.93247 15.742753,15.742753 0 0 0 0.10692,-5.936184 c -0.35616,-2.065782 -1.55527,-3.039318 -3.88226,-3.20553 -3.11056,-0.21372 -6.23299,-0.379917 -9.34355,-0.60549 a 27.211457,27.211457 0 0 1 -2.99184,-0.403662 5.9361813,5.9361813 0 0 1 -5.22385,-5.330691 17.808544,17.808544 0 0 1 0.28494,-7.384611 6.1617564,6.1617564 0 0 1 5.11699,-4.820175 38.300241,38.300241 0 0 1 13.78383,-0.09498 c 3.62106,0.629235 5.40191,2.944344 5.63936,6.802866 0,0.759831 0,1.519662 0,2.37447 h -3.76354 c -0.11871,-0.997278 -0.19005,-1.923324 -0.33241,-2.837492 a 3.2055381,3.2055381 0 0 0 -3.07495,-3.146175 37.445433,37.445433 0 0 0 -10.50703,0.0831 c -2.37449,0.379915 -3.24116,1.329705 -3.43112,3.704175 a 19.090759,19.09076 0 0 0 0.0714,3.894135 3.9060075,3.9060075 0 0 0 3.98912,3.787284 c 2.12515,0.17808 4.27404,0.17808 6.39919,0.320553 2.12515,0.14247 3.97725,0.28494 5.9362,0.593622 a 5.6749896,5.6749896 0 0 1 5.04575,5.022009 21.275274,21.275274 0 0 1 0,8.061333 6.2923524,6.2923524 0 0 1 -5.59188,5.390052 42.479313,42.479313 0 0 1 -13.79569,0 c -3.96538,-0.70047 -5.76998,-2.896857 -6.04306,-6.945333 -0.14247,-1.21098 -0.0711,-2.374473 -0.0711,-3.573579 z"
       inkscape:connector-curvature="0" />
  </g>
</svg>
